<?xml version="1.0" encoding="UTF-8" standalone="no"?><!DOCTYPE svg PUBLIC "-//W3C//DTD SVG 1.1//EN" "http://www.w3.org/Graphics/SVG/1.1/DTD/svg11.dtd"><svg width="100%" height="100%" viewBox="0 0 530 208" version="1.1" xmlns="http://www.w3.org/2000/svg" xmlns:xlink="http://www.w3.org/1999/xlink" xml:space="preserve" xmlns:serif="http://www.serif.com/" style="fill-rule:evenodd;clip-rule:evenodd;stroke-linejoin:round;stroke-miterlimit:2;"><g><path d="M81.97,-0l15.001,25.983l25.983,-15.001l0,30.003l30.003,-0l-15.001,25.983l25.983,15.002l-25.983,15.001l15.001,25.983l-30.003,0l0,30.003l-25.983,-15.001l-15.001,25.983l-15.002,-25.983l-25.983,15.001l-0,-30.003l-30.003,0l15.001,-25.983l-25.983,-15.001l25.983,-15.002l-15.001,-25.983l30.003,-0l-0,-30.003l25.983,15.001l15.002,-25.983Z" style="fill:#ffb600;"/><circle cx="81.97" cy="81.97" r="50.195" style="fill:#ffe100;"/><clipPath id="_clip1"><circle cx="81.97" cy="81.97" r="50.195"/></clipPath><g clip-path="url(#_clip1)"><circle cx="87.315" cy="80.297" r="50.195" style="fill:#ffee6b;"/></g><path d="M128.304,79.564c4.297,-23.351 24.778,-41.067 49.365,-41.067c24.273,0 44.546,17.267 49.192,40.176c5.081,-1.822 10.556,-2.814 16.261,-2.814c23.495,-0 43.089,16.833 47.369,39.085c16.618,7.621 28.171,24.408 28.171,43.872c-0,26.623 -21.615,48.238 -48.238,48.238c-12.824,-0 -24.486,-5.016 -33.128,-13.188c-8.642,8.172 -20.304,13.188 -33.129,13.188c-14.935,-0 -28.295,-6.803 -37.144,-17.475c-11.446,10.831 -26.887,17.475 -43.869,17.475c-35.238,-0 -63.847,-28.609 -63.847,-63.848c-0,-35.238 28.609,-63.847 63.847,-63.847c1.734,-0 3.452,0.069 5.15,0.205Z" style="fill:#a8f4ff;"/><clipPath id="_clip2"><path d="M128.304,79.564c4.297,-23.351 24.778,-41.067 49.365,-41.067c24.273,0 44.546,17.267 49.192,40.176c5.081,-1.822 10.556,-2.814 16.261,-2.814c23.495,-0 43.089,16.833 47.369,39.085c16.618,7.621 28.171,24.408 28.171,43.872c-0,26.623 -21.615,48.238 -48.238,48.238c-12.824,-0 -24.486,-5.016 -33.128,-13.188c-8.642,8.172 -20.304,13.188 -33.129,13.188c-14.935,-0 -28.295,-6.803 -37.144,-17.475c-11.446,10.831 -26.887,17.475 -43.869,17.475c-35.238,-0 -63.847,-28.609 -63.847,-63.848c-0,-35.238 28.609,-63.847 63.847,-63.847c1.734,-0 3.452,0.069 5.15,0.205Z"/></clipPath><g clip-path="url(#_clip2)"><path d="M135.264,88.24c4.297,-23.351 24.778,-41.067 49.365,-41.067c24.273,0 37.586,8.591 42.232,31.5c1.941,9.567 17.516,5.862 23.221,5.862c23.495,-0 53.169,16.593 57.449,38.845c16.618,7.621 18.091,24.648 18.091,44.112c-0,26.623 -21.615,48.238 -48.238,48.238c-12.824,-0 -24.486,-5.016 -33.128,-13.188c-8.642,8.172 -20.304,13.188 -33.129,13.188c-14.935,-0 -28.295,-6.803 -37.144,-17.475c-11.446,10.831 -26.887,17.475 -43.869,17.475c-35.238,-0 -63.847,-28.609 -63.847,-63.848c-0,-35.238 28.609,-63.847 63.847,-63.847c1.734,-0 3.452,0.069 5.15,0.205Z" style="fill:#a8feff;"/></g><path d="M288.717,108.32c0.743,2.145 1.338,4.357 1.774,6.624c2.077,0.953 4.075,2.048 5.981,3.274l0.033,-0.297c-0.026,0.236 -0.053,0.479 -0.082,0.73c0.229,-0.005 0.453,-0.013 0.674,-0.024c2.037,1.355 3.964,2.86 5.766,4.5l0.028,-0.021c-0.739,0.529 -1.807,0.793 -3.204,0.793c-1.707,0 -3.008,-0.021 -3.904,-0.064c-0.213,1.536 -0.661,4.203 -1.344,8c-1.451,8.064 -2.176,14.038 -2.176,17.92c-0,3.883 0.299,6.486 0.896,7.808c-3.285,-0.853 -5.547,-2.165 -6.784,-3.936c-1.237,-1.77 -1.856,-4.277 -1.856,-7.52c-0,-2.858 0.448,-6.773 1.344,-11.744c0.896,-4.97 1.472,-8.33 1.728,-10.08c-2.219,0.384 -4.587,1.131 -7.104,2.24c-0.085,-0.938 -0.128,-1.642 -0.128,-2.112c-0,-2.261 0.683,-3.808 2.048,-4.64c1.365,-0.832 3.328,-1.269 5.888,-1.312c0.299,-3.2 0.448,-5.504 0.448,-6.912c-0,-1.232 -0.008,-2.284 -0.025,-3.157l-0.001,-0.07Zm-39.334,33.499c-0,2.006 0.373,3.638 1.12,4.896c0.747,1.259 1.803,1.888 3.168,1.888c2.005,0 3.915,-1.173 5.728,-3.52c1.813,-2.346 3.264,-5.354 4.352,-9.024c1.088,-3.669 1.632,-7.157 1.632,-10.464c-0,-3.306 -0.128,-5.984 -0.384,-8.032c1.28,-0.085 2.176,-0.128 2.688,-0.128c2.176,0 3.819,0.406 4.928,1.216c1.109,0.811 1.664,2.262 1.664,4.352c-0,0.811 -0.512,4.107 -1.536,9.888c-1.024,5.782 -1.536,10.411 -1.536,13.888c-0,3.478 0.661,6.56 1.984,9.248c-3.2,-0.554 -5.547,-1.738 -7.04,-3.552c-1.493,-1.813 -2.24,-4.426 -2.24,-7.84c-0,-0.597 0.085,-1.749 0.256,-3.456c-1.152,4.054 -3.2,7.318 -6.144,9.792c-2.944,2.475 -5.835,3.712 -8.672,3.712c-2.837,0 -5.12,-1.056 -6.848,-3.168c-1.728,-2.112 -2.592,-5.109 -2.592,-8.992c-0,-3.882 0.693,-7.648 2.08,-11.296c1.387,-3.648 3.467,-6.741 6.24,-9.28c2.773,-2.538 5.867,-3.808 9.28,-3.808c1.963,0 3.968,0.47 6.016,1.408c-4.309,1.536 -7.744,4.555 -10.304,9.056c-2.56,4.502 -3.84,8.907 -3.84,13.216Zm-29.12,-3.648c-2.048,0 -4.053,-0.234 -6.016,-0.704c-0.043,0.427 -0.064,1.088 -0.064,1.984c-0,3.542 0.661,6.208 1.984,8c1.323,1.792 2.901,2.688 4.736,2.688c1.835,0 3.584,-0.554 5.248,-1.664c1.664,-1.109 3.115,-2.645 4.352,-4.608c1.536,0.342 2.304,1.131 2.304,2.368c-3.755,5.76 -8.597,8.64 -14.528,8.64c-3.584,0 -6.72,-1.376 -9.408,-4.128c-2.688,-2.752 -4.032,-6.581 -4.032,-11.488c-0,-3.669 0.704,-7.157 2.112,-10.464c1.408,-3.306 3.648,-6.101 6.72,-8.384c3.072,-2.282 6.475,-3.424 10.208,-3.424c3.733,0 6.475,0.854 8.224,2.56c1.749,1.707 2.624,3.947 2.624,6.72c-0,4.011 -1.397,6.998 -4.192,8.96c-2.795,1.963 -6.219,2.944 -10.272,2.944Zm-38.656,15.744c-0.299,0.128 -1.12,0.31 -2.464,0.544c-1.344,0.235 -2.603,0.352 -3.776,0.352c-1.173,0 -1.76,-0.32 -1.76,-0.96c-0.555,-2.261 -1.92,-10.346 -4.096,-24.256c-5.888,13.099 -9.387,21.206 -10.496,24.32c-0.299,0.128 -1.131,0.31 -2.496,0.544c-1.365,0.235 -2.624,0.352 -3.776,0.352c-1.152,0 -1.728,-0.32 -1.728,-0.96c-0.64,-2.688 -1.536,-7.872 -2.688,-15.552c-1.152,-7.68 -2.347,-14.656 -3.584,-20.928c-1.237,-6.272 -2.517,-10.432 -3.84,-12.48c2.347,-1.109 4.277,-1.664 5.792,-1.664c1.515,0 2.613,0.278 3.296,0.832c0.683,0.555 1.312,1.76 1.888,3.616c0.576,1.856 1.099,4.438 1.568,7.744c0.469,3.307 0.885,6.422 1.248,9.344c0.363,2.923 0.544,4.406 0.544,4.448c-0,0.043 0.021,0.246 0.064,0.608c0.043,0.363 0.373,2.688 0.992,6.976c0.619,4.288 1.013,7.051 1.184,8.288c3.285,-7.04 6.677,-15.744 10.176,-26.112c-1.365,-7.082 -2.752,-11.776 -4.16,-14.08c2.347,-1.109 4.277,-1.664 5.792,-1.664c1.515,0 2.613,0.278 3.296,0.832c0.683,0.555 1.312,1.76 1.888,3.616c0.576,1.856 1.099,4.438 1.568,7.744c0.469,3.307 0.885,6.422 1.248,9.344c0.363,2.923 0.544,4.406 0.544,4.448c-0,0.043 0.021,0.246 0.064,0.608c0.043,0.363 0.373,2.688 0.992,6.976c0.619,4.288 1.013,7.051 1.184,8.288c2.987,-7.765 6.016,-16.149 9.088,-25.152c3.072,-9.002 4.693,-14.89 4.864,-17.664c4.608,0.939 6.912,2.432 6.912,4.48c-0,2.774 -4.395,13.803 -13.184,33.088c-3.413,7.552 -5.461,12.246 -6.144,14.08Zm127.592,-23.784c1.522,2.064 2.888,4.238 4.07,6.515c1.156,2.227 2.129,4.543 2.929,6.922l0.077,0.232c-0.093,1.079 -0.14,2.158 -0.14,3.235c-0,3.094 0.128,5.387 0.384,6.88c-1.365,0.086 -2.261,0.128 -2.688,0.128c-2.432,0 -4.181,-0.416 -5.248,-1.248c-1.067,-0.832 -1.6,-2.165 -1.6,-4c-0,-1.834 0.363,-5.333 1.088,-10.496c0.413,-2.845 0.789,-5.569 1.128,-8.168Zm7.093,13.474l-0.001,0.011l0.001,-0.006l-0,-0.005Zm0.057,-0.574l-0.002,0.021l0.001,-0.01l0.001,-0.011Zm0.019,-0.18l0,0.003l0,-0.003Zm0.046,-0.394l-0.003,0.028l0.002,-0.012l0.001,-0.016Zm0.023,-0.182l-0.003,0.023l0.002,-0.015l0.001,-0.008Zm0.052,-0.391l-0.005,0.031l0.002,-0.011l0.003,-0.02Zm0.025,-0.185l-0.005,0.036l0.003,-0.021l0.002,-0.015Zm0.057,-0.387l-0.004,0.032l0.001,-0.01l0.003,-0.022Zm0.029,-0.188l-0.006,0.043l0.003,-0.022l0.003,-0.021Zm0.028,-0.176l-0.004,0.027l0.003,-0.02l0.001,-0.007Zm0.034,-0.204l-0.004,0.027l0.001,-0.006l0.003,-0.021Zm0.033,-0.195l-0.008,0.048l0.004,-0.022l0.004,-0.026Zm0.031,-0.177l-0.007,0.042l0.005,-0.029l0.002,-0.013Zm0.034,-0.187l-0.003,0.012l0.003,-0.012Zm0.038,-0.21l-0.009,0.049l0.004,-0.019l0.005,-0.03Zm0.034,-0.179l-0.009,0.05l0.006,-0.031l0.003,-0.019Zm0.034,-0.172l-0.002,0.01l0.002,-0.01Zm0.044,-0.222l-0.01,0.049l0.003,-0.016l0.007,-0.033Zm0.037,-0.181l-0.011,0.054l0.006,-0.03l0.005,-0.024Zm0.036,-0.174l-0.007,0.035l0.006,-0.027l0.001,-0.008Zm0.047,-0.214l-0.01,0.043l0.003,-0.011l0.007,-0.032Zm0.041,-0.187l-0.013,0.056l0.006,-0.027l0.007,-0.029Zm0.039,-0.175l-0.011,0.047l0.008,-0.034l0.003,-0.013Zm0.046,-0.201l-0.007,0.03l0.001,-0.006l0.006,-0.024Zm0.047,-0.198l-0.013,0.055l0.005,-0.023l0.008,-0.032Zm0.042,-0.177l-0.013,0.053l0.009,-0.034l0.004,-0.019Zm-94.294,-16.94c-2.176,0 -4.011,1.344 -5.504,4.032c-1.493,2.688 -2.475,5.952 -2.944,9.792l0.96,0c3.712,0 6.453,-0.96 8.224,-2.88c1.771,-1.92 2.656,-4.224 2.656,-6.912c-0,-1.109 -0.288,-2.058 -0.864,-2.848c-0.576,-0.789 -1.419,-1.184 -2.528,-1.184Zm86.597,6.433l-0.005,0.046l0.009,-0.077l-0.004,0.031Zm0.067,-0.537l-0.004,0.033l0.011,-0.088l-0.007,0.055Zm0.255,-2.111l-0.011,0.087l0.015,-0.121l-0.004,0.034Zm0.06,-0.519l-0.009,0.081l0.019,-0.161l-0.01,0.08Zm0.06,-0.514l-0.005,0.043l0.018,-0.154l-0.013,0.111Zm-7.073,-0.62l-0.017,0.013l0.026,-0.019l-0.009,0.006Zm0.042,-0.031l-0.023,0.017l0.023,-0.017l0.017,-0.013l-0.017,0.013Zm0.041,-0.031l-0.006,0.005l0.017,-0.014l-0.011,0.009Zm0.04,-0.032l-0.01,0.008l0.017,-0.014l-0.007,0.006Zm0.039,-0.033l-0.009,0.008l0.012,-0.01l-0.003,0.002Zm0.039,-0.033l-0.003,0.003l0.011,-0.01l-0.008,0.007Zm0.038,-0.034l-0.006,0.006l0.012,-0.011l-0.006,0.005Zm0.037,-0.034l-0.007,0.006l0.01,-0.009l-0.003,0.003Zm0.037,-0.035l-0.002,0.001l0.007,-0.006l-0.005,0.005Zm0.036,-0.036l-0.005,0.005l0.01,-0.011l-0.005,0.006Zm0.035,-0.036l-0.007,0.007l0.01,-0.01l-0.003,0.003Zm6.861,-0.566l-0.014,0.125l0.017,-0.149l-0.003,0.024Zm0.055,-0.5l-0.014,0.128l0.023,-0.204l-0.009,0.076Zm0.054,-0.496l-0.009,0.088l0.023,-0.215l-0.014,0.127Zm0.053,-0.492l-0.004,0.041l0.023,-0.214l-0.019,0.173Zm0.103,-0.972l-0.018,0.166l0.018,-0.172l-0,0.006Zm0.049,-0.481l-0.019,0.182l0.025,-0.242l-0.006,0.06Zm0.048,-0.477l-0.013,0.133l0.025,-0.248l-0.012,0.115Zm-12.977,-0.166l-0.03,0.002l0.033,-0.002l-0.003,0Zm0.148,-0.01l-0.044,0.003l0.052,-0.003l-0.008,0Zm0.146,-0.01l-0.045,0.003l0.058,-0.004l-0.013,0.001Zm0.145,-0.012l-0.043,0.003l0.061,-0.005l-0.018,0.002Zm0.144,-0.012l-0.04,0.003l0.062,-0.005l-0.022,0.002Zm0.143,-0.014l-0.037,0.004l0.064,-0.006l-0.027,0.002Zm0.141,-0.014l-0.032,0.004l0.064,-0.007l-0.032,0.003Zm0.141,-0.014l-0.029,0.003l0.064,-0.007l-0.035,0.004Zm0.139,-0.016l-0.024,0.003l0.064,-0.008l-0.04,0.005Zm0.137,-0.016l-0.019,0.002l0.064,-0.008l-0.045,0.006Zm0.137,-0.017l-0.015,0.002l0.063,-0.009l-0.048,0.007Zm0.135,-0.018l-0.011,0.001l0.063,-0.009l-0.052,0.008Zm0.134,-0.019l-0.006,0.001l0.061,-0.009l-0.055,0.008Zm0.133,-0.02l-0.002,0.001l0.057,-0.009l-0.055,0.008Zm0.262,-0.041l-0.06,0.01l0.062,-0.01l-0.002,0Zm10.94,-0.074l-0.009,0.081l0.026,-0.257l-0.017,0.176Zm-10.811,0.052l-0.058,0.01l0.065,-0.011l-0.007,0.001Zm0.128,-0.023l-0.054,0.01l0.065,-0.012l-0.011,0.002Zm0.126,-0.023l-0.049,0.009l0.065,-0.012l-0.016,0.003Zm0.126,-0.024l-0.045,0.008l0.065,-0.012l-0.02,0.004Zm0.124,-0.025l-0.04,0.008l0.064,-0.013l-0.024,0.005Zm0.123,-0.026l-0.036,0.007l0.064,-0.013l-0.028,0.006Zm0.122,-0.027l-0.031,0.007l0.063,-0.014l-0.032,0.007Zm0.12,-0.027l-0.027,0.006l0.064,-0.015l-0.037,0.009Zm0.119,-0.029l-0.022,0.006l0.063,-0.016l-0.041,0.01Zm0.118,-0.029l-0.018,0.005l0.064,-0.016l-0.046,0.011Zm0.117,-0.03l-0.014,0.004l0.065,-0.017l-0.051,0.013Zm0.116,-0.03l-0.01,0.002l0.066,-0.018l-0.056,0.016Zm0.114,-0.032l-0.006,0.002l0.074,-0.021l-0.068,0.019Zm0.226,-0.065l-0.115,0.034c0.039,-0.011 0.077,-0.023 0.115,-0.034Zm0.11,-0.034l-0.075,0.023l0.079,-0.024l-0.004,0.001Zm-5.015,-0.297l-0.03,0.287c0.011,-0.097 0.021,-0.193 0.03,-0.287Zm5.124,0.263l-0.059,0.018l0.067,-0.021l-0.008,0.003Zm0.108,-0.036l-0.051,0.017l0.063,-0.021l-0.012,0.004Zm8.851,-0.028l-0.003,0.031l0.03,-0.31l-0.027,0.279Zm-8.744,-0.008l-0.045,0.015l0.061,-0.02l-0.016,0.005Zm0.106,-0.037l-0.04,0.014l0.059,-0.021l-0.019,0.007Zm0.104,-0.038l-0.035,0.013l0.058,-0.021l-0.023,0.008Zm0.103,-0.038l-0.03,0.011l0.057,-0.022l-0.027,0.011Zm0.102,-0.04l-0.026,0.011l0.057,-0.023l-0.031,0.012Zm0.101,-0.04l-0.022,0.009l0.056,-0.023l-0.034,0.014Zm-5.776,-0.819l-0.023,0.257c-0.009,0.092 -0.018,0.184 -0.027,0.277l-0.028,0.282c0.029,-0.284 0.055,-0.556 0.078,-0.816Zm5.876,0.778l-0.019,0.008l0.056,-0.024l-0.037,0.016Zm0.098,-0.042l-0.015,0.007l0.057,-0.025l-0.042,0.018Zm0.097,-0.042l-0.011,0.005l0.058,-0.026l-0.047,0.021Zm0.096,-0.043l-0.008,0.003l0.062,-0.029l-0.054,0.026Zm0.094,-0.045l-0.004,0.002l0.076,-0.036l-0.072,0.034Zm0.188,-0.091l-0.095,0.047c0.032,-0.016 0.063,-0.031 0.095,-0.047Zm0.089,-0.046l-0.006,0.003l0.009,-0.005l-0.003,0.002Zm0.089,-0.047l-0.006,0.003l0.011,-0.006l-0.005,0.003Zm0.089,-0.048l-0.007,0.003l0.013,-0.007l-0.006,0.004Zm7.376,-0.281l-0.026,0.273l0.03,-0.311l-0.004,0.038Zm-7.289,0.232l-0.005,0.003l0.012,-0.007l-0.007,0.004Zm0.086,-0.05l-0.004,0.002l0.01,-0.006l-0.006,0.004Zm0.085,-0.05l-0.002,0.001l0.007,-0.004l-0.005,0.003Zm0.084,-0.052l-0.001,0.001l0.001,-0.001Zm0.083,-0.053l-0.005,0.004l0.005,-0.004Zm0.08,-0.052l-0.006,0.004l0.009,-0.006l-0.003,0.002Zm0.079,-0.053l-0.006,0.004l0.011,-0.007l-0.005,0.003Zm-7.278,-0.272l-0.02,0.238c0.007,-0.081 0.013,-0.16 0.02,-0.238Zm7.357,0.217l-0.006,0.004l0.011,-0.008l-0.005,0.004Zm0.077,-0.055l-0.004,0.003l0.01,-0.007l-0.006,0.004Zm0.076,-0.056l-0.003,0.002l0.009,-0.006l-0.006,0.004Zm6.603,-0.214l-0.017,0.181l0.025,-0.274l-0.008,0.093Zm-6.528,0.157l-0.001,0.001l0.005,-0.004l-0.004,0.003Zm-7.579,-0.121l-0.003,0.032l0.006,-0.072l-0.003,0.04Zm0.011,-0.137l-0.003,0.036l0.005,-0.069l-0.002,0.033Zm0.01,-0.136l-0.003,0.04l0.005,-0.066l-0.002,0.026Zm0.01,-0.132l-0.004,0.043l0.005,-0.063l-0.001,0.02Zm14.117,-0.086l-0.011,0.122l0.025,-0.273l-0.014,0.151Zm-14.108,-0.045l-0.003,0.046l0.004,-0.06l-0.001,0.014Zm0.008,-0.128l-0.003,0.046l0.004,-0.054l-0.001,0.008Zm0.008,-0.126l-0.002,0.04l0.002,-0.043l-0,0.003Zm14.133,-0.151l-0.006,0.067l0.026,-0.299l-0.02,0.232Zm-14.126,0.028l-0,0.003l0.002,-0.036l-0.002,0.033Zm0.007,-0.121l-0.001,0.008l0.003,-0.046l-0.002,0.038Zm0.006,-0.118l-0.001,0.011l0.002,-0.047l-0.001,0.036Zm0.005,-0.117l-0.001,0.016l0.002,-0.048l-0.001,0.032Zm0.005,-0.113l-0.001,0.019l0.002,-0.048l-0.001,0.029Zm14.181,-0.462l-0.04,0.472c0.013,-0.158 0.027,-0.315 0.04,-0.472Zm-14.177,0.35l-0.001,0.023l0.001,-0.047l-0,0.024Zm0.003,-0.109l-0.001,0.026l0.002,-0.046l-0.001,0.02Zm0.003,-0.107l-0.001,0.029l0.001,-0.044l-0,0.015Zm0.002,-0.104l-0,0.031l0,-0.042l0,0.011Zm0.002,-0.102l-0.001,0.031l0.001,-0.038l-0,0.007Zm0.001,-0.099l-0.001,0.027l0.001,-0.031l-0,0.004Zm14.202,-0.255l-0.021,0.245l0.026,-0.311l-0.005,0.066Zm0.036,-0.436l-0.014,0.162l0.024,-0.283l-0.01,0.121Zm0.034,-0.431l-0.008,0.102l0.023,-0.291l-0.015,0.189Zm0.034,-0.428l-0.004,0.049l0.028,-0.37l-0.024,0.321Zm0.064,-0.845l-0.031,0.411l0.033,-0.449l-0.002,0.038Zm0.03,-0.417l-0.015,0.209l0.021,-0.299l-0.006,0.09Zm0.029,-0.412l-0.01,0.137l0.02,-0.286l-0.01,0.149Zm0.028,-0.409l-0.006,0.08l0.021,-0.309l-0.015,0.229Zm0.053,-0.819l-0.029,0.443c0.01,-0.148 0.019,-0.296 0.029,-0.443Zm0.023,-0.386l-0.017,0.282l0.021,-0.343l-0.004,0.061Zm0.024,-0.394l-0.011,0.173l0.017,-0.286l-0.006,0.113Zm0.022,-0.39l-0.006,0.11l0.015,-0.285l-0.009,0.175Zm0.021,-0.387l-0.003,0.058l0.018,-0.346l-0.015,0.288Zm0.04,-0.794l-0.021,0.422c0.007,-0.141 0.014,-0.282 0.021,-0.422Zm0.016,-0.343l-0.01,0.218l0.014,-0.297l-0.004,0.079Zm0.017,-0.374l-0,0.003l-0,-0.003Zm0.015,-0.365l-0.002,0.036l0.003,-0.06l-0.001,0.024Zm0.014,-0.364l-0.001,0.022l0.002,-0.058l-0.001,0.036Zm0.013,-0.36l-0,0.014l0,-0.018l0,0.004Zm0.012,-0.356l-0.001,0.035l0.002,-0.064l-0.001,0.029Zm0.011,-0.353l-0.001,0.017l0.002,-0.05l-0.001,0.033Zm0.01,-0.349l-0.001,0.027l0.001,-0.037l-0,0.01Zm0.008,-0.345l-0.001,0.032l0.002,-0.063l-0.001,0.031Zm0.007,-0.341l0,0.011l0.001,-0.039l-0.001,0.028Zm0.007,-0.338l-0.001,0.032l0.001,-0.046l-0,0.014Zm0.005,-0.333l-0.001,0.028l0.001,-0.061l-0,0.033Zm0.004,-0.33l-0,0.005l-0,-0.023l-0,0.018Zm0.003,-0.326l-0.001,0.033l0.001,-0.053l-0,0.02Zm0.001,-0.323l0,0.024l0,-0.057l0,0.033Z" style="fill-rule:nonzero;"/><path d="M463.719,130.171c1.792,-3.669 4.043,-6.528 6.752,-8.576c2.709,-2.048 5.387,-3.072 8.032,-3.072c2.645,0 4.832,1.056 6.56,3.168c1.728,2.112 2.592,5.174 2.592,9.184c-0,6.4 -1.749,11.84 -5.248,16.32c-3.499,4.48 -7.701,6.72 -12.608,6.72c-1.749,0 -3.52,-0.341 -5.312,-1.024c4.181,-0.981 7.509,-3.69 9.984,-8.128c2.475,-4.437 3.712,-8.853 3.712,-13.248c-0,-2.048 -0.373,-3.712 -1.12,-4.992c-0.747,-1.28 -1.803,-1.92 -3.168,-1.92c-2.603,0 -4.907,1.579 -6.912,4.736c-2.005,3.158 -3.541,7.478 -4.608,12.96c-1.067,5.483 -1.6,11.2 -1.6,17.152c-0,5.952 0.427,11.126 1.28,15.52c-3.499,-0.128 -6.091,-0.693 -7.776,-1.696c-1.685,-1.002 -2.528,-2.912 -2.528,-5.728c-0,-1.024 0.651,-6.432 1.952,-16.224c1.301,-9.792 1.952,-17.333 1.952,-22.624c-0,-5.29 -0.32,-9.749 -0.96,-13.376c3.413,0.854 5.771,2.432 7.072,4.736c1.301,2.304 1.952,5.675 1.952,10.112Zm41.536,0c1.792,-3.669 4.043,-6.528 6.752,-8.576c2.709,-2.048 5.387,-3.072 8.032,-3.072c2.645,0 4.832,1.056 6.56,3.168c1.728,2.112 2.592,5.174 2.592,9.184c-0,6.4 -1.749,11.84 -5.248,16.32c-3.499,4.48 -7.701,6.72 -12.608,6.72c-1.749,0 -3.52,-0.341 -5.312,-1.024c4.181,-0.981 7.509,-3.69 9.984,-8.128c2.475,-4.437 3.712,-8.853 3.712,-13.248c-0,-2.048 -0.373,-3.712 -1.12,-4.992c-0.747,-1.28 -1.803,-1.92 -3.168,-1.92c-2.603,0 -4.907,1.579 -6.912,4.736c-2.005,3.158 -3.541,7.478 -4.608,12.96c-1.067,5.483 -1.6,11.2 -1.6,17.152c-0,5.952 0.427,11.126 1.28,15.52c-3.499,-0.128 -6.091,-0.693 -7.776,-1.696c-1.685,-1.002 -2.528,-2.912 -2.528,-5.728c-0,-1.024 0.651,-6.432 1.952,-16.224c1.301,-9.792 1.952,-17.333 1.952,-22.624c-0,-5.29 -0.32,-9.749 -0.96,-13.376c3.413,0.854 5.771,2.432 7.072,4.736c1.301,2.304 1.952,5.675 1.952,10.112Zm-62.592,24.768c-1.536,0 -2.667,-0.394 -3.392,-1.184c-0.725,-0.789 -1.344,-1.984 -1.856,-3.584c-0.512,-1.6 -1.515,-5.898 -3.008,-12.896c-0.981,0.854 -2.581,1.323 -4.8,1.408l-10.944,0.384c-2.603,6.358 -4.523,12.011 -5.76,16.96c-4.096,-1.45 -6.144,-3.093 -6.144,-4.928c-0,-0.81 1.237,-3.84 3.712,-9.088c2.475,-5.248 5.28,-11.21 8.416,-17.888c3.136,-6.677 5.259,-11.53 6.368,-14.56l1.152,-3.136c-0.341,-0.597 -1.173,-1.685 -2.496,-3.264c1.536,-0.512 2.869,-0.768 4,-0.768c1.131,0 2.069,0.086 2.816,0.256c0.747,0.171 1.408,0.459 1.984,0.864c0.576,0.406 1.088,0.822 1.536,1.248c0.448,0.427 0.864,1.056 1.248,1.888c0.384,0.832 0.704,1.579 0.96,2.24c0.256,0.662 0.544,1.59 0.864,2.784c0.32,1.195 0.576,2.23 0.768,3.104c0.192,0.875 0.448,2.091 0.768,3.648c0.32,1.558 0.651,3.062 0.992,4.512c0.341,1.451 0.939,4.214 1.792,8.288c0.853,4.075 1.525,7.126 2.016,9.152c0.491,2.027 1.195,4.299 2.112,6.816c0.917,2.518 1.888,4.502 2.912,5.952c-2.475,1.195 -4.48,1.792 -6.016,1.792Zm-133.464,-24.808c1.552,-11.903 2.328,-21.233 2.328,-27.992c-0,-3.712 -0.256,-6.208 -0.768,-7.488c3.2,0.854 5.387,2.144 6.56,3.872c1.173,1.728 1.76,4.171 1.76,7.328c-0,2.134 -0.416,6.614 -1.248,13.44c-0.832,6.827 -1.397,11.776 -1.696,14.848c1.408,-4.821 3.605,-8.885 6.592,-12.192c2.987,-3.306 5.771,-4.96 8.352,-4.96c2.581,0 4.416,0.779 5.504,2.336c1.088,1.558 1.632,3.67 1.632,6.336c-0,2.667 -0.416,6.411 -1.248,11.232c-0.832,4.822 -1.248,8.331 -1.248,10.528c-0,2.198 0.277,3.798 0.832,4.8c0.555,1.003 1.493,1.867 2.816,2.592c-0.555,0.043 -1.344,0.064 -2.368,0.064c-3.584,0 -6.133,-0.554 -7.648,-1.664c-1.515,-1.109 -2.272,-3.05 -2.272,-5.824c-0,-1.578 0.427,-4.661 1.28,-9.248c0.853,-4.586 1.28,-8.01 1.28,-10.272c-0,-2.816 -0.853,-4.224 -2.56,-4.224c-1.024,0 -2.155,0.576 -3.392,1.728c-1.237,1.152 -2.421,2.72 -3.552,4.704c-1.131,1.984 -2.08,4.534 -2.848,7.648c-0.501,2.03 -0.838,4.056 -1.012,6.077c-1.625,-4.958 -4.032,-9.563 -7.076,-13.669Zm51.992,8.04c-2.048,0 -4.053,-0.234 -6.016,-0.704c-0.043,0.427 -0.064,1.088 -0.064,1.984c-0,3.542 0.661,6.208 1.984,8c1.323,1.792 2.901,2.688 4.736,2.688c1.835,0 3.584,-0.554 5.248,-1.664c1.664,-1.109 3.115,-2.645 4.352,-4.608c1.536,0.342 2.304,1.131 2.304,2.368c-3.755,5.76 -8.597,8.64 -14.528,8.64c-3.584,0 -6.72,-1.376 -9.408,-4.128c-2.688,-2.752 -4.032,-6.581 -4.032,-11.488c-0,-3.669 0.704,-7.157 2.112,-10.464c1.408,-3.306 3.648,-6.101 6.72,-8.384c3.072,-2.282 6.475,-3.424 10.208,-3.424c3.733,0 6.475,0.854 8.224,2.56c1.749,1.707 2.624,3.947 2.624,6.72c-0,4.011 -1.397,6.998 -4.192,8.96c-2.795,1.963 -6.219,2.944 -10.272,2.944Zm31.104,-5.056c1.536,-5.546 3.381,-9.632 5.536,-12.256c2.155,-2.624 4.16,-3.936 6.016,-3.936c1.856,0 3.253,0.694 4.192,2.08c0.939,1.387 1.408,3.179 1.408,5.376c-0,2.198 -0.651,4.214 -1.952,6.048c-1.301,1.835 -3.083,2.752 -5.344,2.752c-0.597,0 -1.301,-0.17 -2.112,-0.512c1.323,-1.664 1.984,-3.669 1.984,-6.016c-0,-1.365 -0.555,-2.048 -1.664,-2.048c-0.811,0 -1.685,0.566 -2.624,1.696c-0.939,1.131 -1.835,2.688 -2.688,4.672c-0.853,1.984 -1.568,4.523 -2.144,7.616c-0.576,3.094 -0.864,6.39 -0.864,9.888c-0,0.427 0.107,2.24 0.32,5.44c-1.365,0.086 -2.24,0.128 -2.624,0.128c-2.432,0 -4.181,-0.426 -5.248,-1.28c-1.067,-0.853 -1.6,-2.261 -1.6,-4.224c-0,-0.853 0.448,-4.138 1.344,-9.856c0.896,-5.717 1.344,-10.272 1.344,-13.664c-0,-3.392 -0.363,-6.517 -1.088,-9.376c3.115,0.982 5.291,2.379 6.528,4.192c1.237,1.814 1.856,3.926 1.856,6.336c-0,2.411 -0.192,4.726 -0.576,6.944Zm-28.416,-12.16c-2.176,0 -4.011,1.344 -5.504,4.032c-1.493,2.688 -2.475,5.952 -2.944,9.792l0.96,0c3.712,0 6.453,-0.96 8.224,-2.88c1.771,-1.92 2.656,-4.224 2.656,-6.912c-0,-1.109 -0.288,-2.058 -0.864,-2.848c-0.576,-0.789 -1.419,-1.184 -2.528,-1.184Zm65.472,-6.016c-0.597,1.366 -1.909,4.278 -3.936,8.736c-2.027,4.459 -3.595,8.011 -4.704,10.656l13.12,0c-2.005,-9.216 -3.499,-15.68 -4.48,-19.392Zm-132.254,3.688c3.241,-0.153 5.64,-0.849 7.198,-2.088c0.085,0.854 0.128,1.494 0.128,1.92c-0,2.048 -0.363,3.467 -1.088,4.256c-0.139,0.152 -0.297,0.289 -0.472,0.412c-1.802,-1.64 -3.729,-3.145 -5.766,-4.5Zm-8.38,-10.307c-0.002,-0.1 -0.004,-0.197 -0.006,-0.293c-0.021,-0.938 -0.032,-1.642 -0.032,-2.112c2.816,0.299 4.864,1.142 6.144,2.528c1.28,1.387 1.92,3.36 1.92,5.92c-0,0.942 -0.09,2.227 -0.271,3.855c-1.906,-1.226 -3.904,-2.321 -5.981,-3.274c-0.436,-2.267 -1.031,-4.479 -1.774,-6.624Z" style="fill:#fff;fill-rule:nonzero;"/></g></svg>